<?xml version="1.0" encoding="UTF-8" standalone="no"?><svg xmlns="http://www.w3.org/2000/svg" xmlns:xlink="http://www.w3.org/1999/xlink" fill="#ffffff" height="60.5" preserveAspectRatio="xMidYMid meet" version="1" viewBox="1.7 -0.2 65.0 60.5" width="65" zoomAndPan="magnify"><g id="change1_1"><path d="M56.77344,18.95117a1.00014,1.00014,0,0,0-1.76658.93755c9.198,16.90862-3.72566,38.35569-23.00718,38.11106A26.02907,26.02907,0,0,1,6,32C5.75918,12.71818,27.20024-.20566,44.11151,8.99351a1.00009,1.00009,0,0,0,.93732-1.767A28,28,0,1,0,32,60C52.76816,60.25891,66.68515,37.16526,56.77344,18.95117Z"/></g><g id="change1_2"><path d="M32,24a7.7947,7.7947,0,0,1,2.54443.42529,1,1,0,0,0,1.271-.61963c.43933-1.769-2.67525-1.69841-3.81535-1.8058-13.26477.54823-13.26418,19.4525,0,20.00016A10.01116,10.01116,0,0,0,42,32c-.10213-1.1608-.03452-4.24291-1.79578-3.80525a.99934.99934,0,0,0-.61975,1.27107A7.76038,7.76038,0,0,1,40,32c-.401,10.59667-15.59908,10.59705-16-.0001A8.00916,8.00916,0,0,1,32,24Z"/></g><g id="change1_3"><path d="M41.57471,16.73486a.99971.99971,0,0,0-.38965-1.35937A18.99066,18.99066,0,0,0,32,13c-25.20241,1.04163-25.20208,36.95886.00014,38a18.98878,18.98878,0,0,0,16.62437-28.1851.99993.99993,0,1,0-1.749.96973C53.214,34.77746,44.69911,49.22016,31.99973,48.99981A17.01867,17.01867,0,0,1,15,32c-.21781-12.699,14.22106-21.21492,25.21549-14.8752A.998.998,0,0,0,41.57471,16.73486Z"/></g><g id="change1_4"><path d="M58.16,12.91l-7.28,7.28a1.0087,1.0087,0,0,1-.7.29H50.1l-4.79-.37-12.6,12.6a1.00438,1.00438,0,0,1-1.42-1.4201L43.89,18.69l-.37-4.79a1.016,1.016,0,0,1,.29-.78l7.28-7.28A1.00964,1.00964,0,0,1,52.8,6.47l.33,4.4,4.4.33A1.00967,1.00967,0,0,1,58.16,12.91Z"/></g></svg>