<svg xmlns="http://www.w3.org/2000/svg" xmlns:xlink="http://www.w3.org/1999/xlink" width="188" zoomAndPan="magnify" viewBox="0 0 141.12 141.750002" height="188" preserveAspectRatio="xMidYMid meet" version="1.0"><defs><g/><clipPath id="51a4b5018e"><path d="M 44 65 L 53 65 L 53 80 L 44 80 Z M 44 65 " clip-rule="nonzero"/></clipPath><clipPath id="4dcff9edbf"><path d="M 52.085938 65.324219 L 54.859375 77.9375 L 47.652344 79.523438 L 44.878906 66.910156 Z M 52.085938 65.324219 " clip-rule="nonzero"/></clipPath><clipPath id="71909b4153"><path d="M 52.085938 65.324219 L 55.257812 79.738281 L 39.941406 83.109375 L 36.769531 68.695312 Z M 52.085938 65.324219 " clip-rule="nonzero"/></clipPath></defs><g fill="#392852" fill-opacity="1"><g transform="translate(5.163279, 86.062776)"><g><path d="M 20.132812 -7.144531 L 20.132812 -28.355469 C 20.132812 -34.367188 20.699219 -36.464844 23.535156 -39.699219 L 8.789062 -39.699219 C 11.625 -36.464844 12.191406 -34.367188 12.191406 -28.355469 L 12.191406 -8.28125 C 12.191406 0.679688 10.660156 7.429688 0.285156 9.867188 C 14.6875 9.867188 20.132812 3.0625 20.132812 -7.144531 Z M 20.132812 -7.144531 "/></g></g></g><g fill="#392852" fill-opacity="1"><g transform="translate(23.19238, 86.062776)"><g><path d="M 20.984375 -31.191406 C 18.089844 -36.183594 17.582031 -38.566406 22.796875 -39.699219 L 1.132812 -39.699219 C 5.5 -38.566406 9.128906 -35.390625 13.042969 -29.605469 C 18.203125 -22.003906 18.886719 -17.46875 18.886719 -11.34375 C 18.886719 -5.332031 18.316406 -3.234375 15.484375 0 L 30.226562 0 C 27.390625 -3.234375 26.824219 -5.332031 26.824219 -11.34375 C 26.824219 -19.339844 24.898438 -24.441406 20.984375 -31.191406 Z M 45.144531 -39.699219 L 28.128906 -39.699219 C 33.234375 -37.996094 34.933594 -36.296875 36.636719 -31.191406 C 38.339844 -36.296875 40.039062 -37.996094 45.144531 -39.699219 Z M 45.144531 -39.699219 "/></g></g></g><g fill="#392852" fill-opacity="1"><g transform="translate(61.237518, 86.062776)"><g><path d="M 10.433594 -39.699219 C 5.726562 -39.699219 2.835938 -36.351562 2.835938 -31.929688 C 2.835938 -25.859375 6.578125 -22.230469 14.859375 -17.636719 C 27.449219 -10.605469 30.851562 -7.429688 26.089844 0 C 31.476562 0 35.84375 -3.402344 35.84375 -9.074219 C 35.84375 -16.105469 29.433594 -18.601562 21.097656 -23.308594 C 13.15625 -27.789062 6.917969 -31.816406 10.433594 -39.699219 Z M 33.007812 -31.191406 L 33.007812 -39.699219 L 24.5 -39.699219 C 29.605469 -37.996094 31.304688 -36.296875 33.007812 -31.191406 Z M 3.96875 -11.34375 L 3.96875 0 L 15.3125 0 C 9.074219 -1.703125 5.671875 -5.105469 3.96875 -11.34375 Z M 3.96875 -11.34375 "/></g></g></g><g fill="#392852" fill-opacity="1"><g transform="translate(92.194819, 86.062776)"><g><path d="M 2.550781 0 L 17.296875 0 C 14.179688 -3.234375 13.609375 -5.332031 13.609375 -11.34375 L 13.609375 -28.355469 C 13.609375 -34.367188 14.179688 -36.464844 17.296875 -39.699219 L 2.550781 -39.699219 C 5.671875 -36.464844 6.238281 -34.367188 6.238281 -28.355469 L 6.238281 -11.34375 C 6.238281 -5.332031 5.671875 -3.234375 2.550781 0 Z M 41.171875 -25.066406 C 41.171875 -35.671875 30.964844 -39.699219 22.96875 -39.699219 C 28.300781 -37.035156 32.667969 -32.097656 32.667969 -25.066406 C 32.667969 -18.035156 28.300781 -13.042969 22.96875 -10.433594 C 30.964844 -10.433594 41.171875 -14.460938 41.171875 -25.066406 Z M 41.171875 -25.066406 "/></g></g></g><g clip-path="url(#51a4b5018e)"><g clip-path="url(#4dcff9edbf)"><g clip-path="url(#71909b4153)"><path fill="#392852" d="M 52.097656 65.386719 L 47.871094 81.570312 L 37.09375 68.625 C 41.753906 70.066406 46.484375 71.007812 52.097656 65.386719 Z M 52.097656 65.386719 " fill-opacity="1" fill-rule="nonzero"/></g></g></g><g fill="#392852" fill-opacity="1"><g transform="translate(24.269438, 96.244864)"><g><path d="M 4.679688 -2.609375 C 4.679688 -2.039062 4.433594 -1.554688 3.941406 -1.148438 C 3.476562 -0.769531 2.953125 -0.582031 2.375 -0.582031 L 0.261719 -0.582031 L 0.261719 -0.796875 C 0.527344 -0.800781 0.710938 -0.851562 0.804688 -0.953125 C 0.898438 -1.058594 0.945312 -1.242188 0.945312 -1.511719 L 0.945312 -5.414062 C 0.945312 -5.683594 0.898438 -5.867188 0.804688 -5.96875 C 0.710938 -6.066406 0.527344 -6.121094 0.261719 -6.125 L 0.261719 -6.34375 L 2.984375 -6.34375 C 3.425781 -6.34375 3.757812 -6.28125 3.976562 -6.160156 C 4.269531 -6.003906 4.414062 -5.722656 4.414062 -5.324219 C 4.414062 -4.707031 3.988281 -4.144531 3.140625 -3.644531 C 3.617188 -3.636719 3.96875 -3.582031 4.195312 -3.472656 C 4.519531 -3.3125 4.679688 -3.023438 4.679688 -2.609375 Z M 3.609375 -4.71875 C 3.609375 -5.089844 3.515625 -5.40625 3.332031 -5.675781 C 3.125 -5.980469 2.84375 -6.128906 2.492188 -6.128906 C 2.195312 -6.128906 1.957031 -6.058594 1.777344 -5.914062 L 1.777344 -3.820312 L 2.65625 -3.820312 C 3.292969 -3.820312 3.609375 -4.121094 3.609375 -4.71875 Z M 3.816406 -2.058594 C 3.816406 -2.53125 3.671875 -2.90625 3.382812 -3.1875 C 3.09375 -3.472656 2.714844 -3.613281 2.238281 -3.613281 L 1.777344 -3.613281 L 1.777344 -1.238281 C 2.089844 -0.996094 2.410156 -0.875 2.746094 -0.875 C 3.082031 -0.875 3.351562 -0.988281 3.542969 -1.21875 C 3.726562 -1.433594 3.816406 -1.714844 3.816406 -2.058594 Z M 3.816406 -2.058594 "/></g></g></g><g fill="#392852" fill-opacity="1"><g transform="translate(30.067169, 96.244864)"><g><path d="M 6.152344 -6.125 C 5.589844 -6.042969 5.308594 -5.101562 5.308594 -3.3125 C 5.308594 -2.660156 5.308594 -2.304688 5.300781 -2.238281 C 5.269531 -1.816406 5.167969 -1.484375 5 -1.234375 C 4.652344 -0.710938 4.027344 -0.449219 3.125 -0.449219 C 2.175781 -0.449219 1.523438 -0.71875 1.160156 -1.257812 C 0.984375 -1.515625 0.894531 -1.832031 0.894531 -2.210938 L 0.894531 -5.410156 C 0.894531 -5.679688 0.847656 -5.867188 0.753906 -5.964844 C 0.660156 -6.066406 0.480469 -6.121094 0.210938 -6.125 L 0.210938 -6.34375 L 2.414062 -6.34375 L 2.414062 -6.125 C 2.148438 -6.121094 1.964844 -6.066406 1.871094 -5.964844 C 1.777344 -5.867188 1.730469 -5.679688 1.730469 -5.410156 L 1.730469 -2.246094 C 1.730469 -1.671875 1.949219 -1.246094 2.386719 -0.972656 C 2.636719 -0.8125 2.945312 -0.734375 3.320312 -0.734375 C 4.089844 -0.734375 4.589844 -1.003906 4.824219 -1.546875 C 4.9375 -1.8125 4.996094 -2.214844 4.996094 -2.757812 C 4.996094 -3.640625 4.972656 -4.261719 4.933594 -4.621094 C 4.816406 -5.589844 4.558594 -6.089844 4.167969 -6.125 L 4.167969 -6.34375 L 6.152344 -6.34375 Z M 6.152344 -6.125 "/></g></g></g><g fill="#392852" fill-opacity="1"><g transform="translate(37.117073, 96.244864)"><g><path d="M 5.566406 -6.125 C 5.238281 -6.121094 4.882812 -5.785156 4.492188 -5.117188 L 3.125 -2.792969 L 3.125 -1.511719 C 3.125 -1.050781 3.355469 -0.8125 3.8125 -0.796875 L 3.8125 -0.582031 L 1.609375 -0.582031 L 1.609375 -0.796875 C 1.875 -0.800781 2.054688 -0.851562 2.152344 -0.953125 C 2.246094 -1.058594 2.292969 -1.242188 2.292969 -1.511719 L 2.292969 -2.792969 L 1.167969 -5.054688 C 1.011719 -5.359375 0.882812 -5.582031 0.773438 -5.726562 C 0.578125 -5.988281 0.371094 -6.121094 0.15625 -6.125 L 0.15625 -6.34375 L 1.792969 -6.34375 L 1.792969 -6.125 C 1.679688 -6.121094 1.621094 -6.082031 1.621094 -6.003906 C 1.621094 -5.972656 1.628906 -5.945312 1.640625 -5.921875 L 3.054688 -3.113281 C 3.785156 -4.253906 4.148438 -5.085938 4.148438 -5.609375 C 4.148438 -5.816406 4.074219 -5.960938 3.925781 -6.039062 C 3.824219 -6.09375 3.652344 -6.121094 3.414062 -6.125 L 3.414062 -6.34375 L 5.566406 -6.34375 Z M 5.566406 -6.125 "/></g></g></g><g fill="#392852" fill-opacity="1"><g transform="translate(43.302167, 96.244864)"><g><path d="M 2.53125 -0.582031 L 0.328125 -0.582031 L 0.328125 -0.796875 C 0.597656 -0.800781 0.777344 -0.851562 0.871094 -0.953125 C 0.964844 -1.058594 1.011719 -1.242188 1.011719 -1.511719 L 1.011719 -5.414062 C 1.011719 -5.683594 0.964844 -5.867188 0.871094 -5.96875 C 0.777344 -6.066406 0.597656 -6.121094 0.328125 -6.125 L 0.328125 -6.34375 L 2.53125 -6.34375 L 2.53125 -6.125 C 2.261719 -6.121094 2.078125 -6.066406 1.988281 -5.96875 C 1.894531 -5.867188 1.847656 -5.683594 1.847656 -5.414062 L 1.847656 -1.511719 C 1.847656 -1.050781 2.074219 -0.8125 2.53125 -0.796875 Z M 2.53125 -0.582031 "/></g></g></g><g fill="#392852" fill-opacity="1"><g transform="translate(46.892828, 96.244864)"><g><path d="M 6.199219 -6.125 C 5.648438 -6.074219 5.375 -5.171875 5.375 -3.417969 L 5.375 -0.375 L 5.160156 -0.375 L 1.273438 -5.625 L 1.273438 -3.949219 C 1.273438 -3.171875 1.300781 -2.589844 1.355469 -2.199219 C 1.476562 -1.3125 1.726562 -0.84375 2.109375 -0.796875 L 2.109375 -0.582031 L 0.152344 -0.582031 L 0.152344 -0.796875 C 0.699219 -0.882812 0.972656 -1.914062 0.972656 -3.902344 L 0.972656 -5.453125 C 0.972656 -5.707031 0.925781 -5.878906 0.828125 -5.976562 C 0.730469 -6.070312 0.550781 -6.121094 0.296875 -6.125 L 0.296875 -6.34375 L 1.773438 -6.34375 L 5.050781 -1.941406 L 5.050781 -3.277344 C 5.050781 -5.121094 4.777344 -6.070312 4.230469 -6.125 L 4.230469 -6.34375 L 6.199219 -6.34375 Z M 6.199219 -6.125 "/></g></g></g><g fill="#392852" fill-opacity="1"><g transform="translate(53.942734, 96.244864)"><g><path d="M 5.90625 -2.847656 C 5.753906 -2.84375 5.640625 -2.773438 5.558594 -2.640625 C 5.484375 -2.523438 5.449219 -2.390625 5.449219 -2.230469 L 5.449219 -0.375 L 5.226562 -0.375 C 5.210938 -0.902344 5.011719 -1.167969 4.625 -1.167969 C 4.453125 -1.167969 4.246094 -1.082031 4 -0.914062 C 3.917969 -0.855469 3.859375 -0.816406 3.820312 -0.796875 C 3.421875 -0.566406 3.039062 -0.449219 2.675781 -0.449219 C 2.261719 -0.449219 1.867188 -0.578125 1.492188 -0.835938 C 1.128906 -1.085938 0.851562 -1.398438 0.664062 -1.777344 C 0.464844 -2.179688 0.363281 -2.636719 0.363281 -3.140625 C 0.363281 -3.742188 0.507812 -4.304688 0.796875 -4.824219 C 1.085938 -5.34375 1.488281 -5.75 2.003906 -6.050781 C 2.496094 -6.332031 3.050781 -6.472656 3.671875 -6.472656 C 4.152344 -6.472656 4.695312 -6.382812 5.304688 -6.199219 L 5.304688 -4.832031 L 4.976562 -4.832031 C 4.925781 -5.261719 4.730469 -5.597656 4.390625 -5.84375 C 4.078125 -6.0625 3.699219 -6.175781 3.253906 -6.175781 C 2.59375 -6.175781 2.070312 -5.9375 1.679688 -5.464844 C 1.3125 -5.019531 1.128906 -4.460938 1.128906 -3.792969 C 1.128906 -3.089844 1.308594 -2.472656 1.667969 -1.9375 C 2.074219 -1.332031 2.617188 -1.03125 3.289062 -1.03125 C 3.644531 -1.03125 3.957031 -1.128906 4.226562 -1.324219 C 4.523438 -1.539062 4.671875 -1.820312 4.671875 -2.167969 C 4.671875 -2.621094 4.386719 -2.847656 3.820312 -2.847656 L 3.65625 -2.847656 L 3.65625 -3.058594 L 5.90625 -3.058594 Z M 5.90625 -2.847656 "/></g></g></g><g fill="#392852" fill-opacity="1"><g transform="translate(60.893545, 96.244864)"><g/></g></g><g fill="#392852" fill-opacity="1"><g transform="translate(63.948201, 96.244864)"><g><path d="M 5.433594 -1.679688 C 4.480469 -0.859375 3.613281 -0.449219 2.828125 -0.449219 C 2.085938 -0.449219 1.480469 -0.726562 1.007812 -1.277344 C 0.566406 -1.804688 0.34375 -2.445312 0.34375 -3.199219 C 0.34375 -4.386719 0.851562 -5.316406 1.863281 -5.992188 C 2.347656 -6.3125 2.929688 -6.472656 3.613281 -6.472656 C 4.207031 -6.472656 4.769531 -6.378906 5.296875 -6.191406 L 5.296875 -4.832031 L 4.976562 -4.832031 C 4.9375 -5.269531 4.738281 -5.609375 4.382812 -5.855469 C 4.0625 -6.078125 3.671875 -6.1875 3.210938 -6.1875 C 2.546875 -6.1875 2.023438 -5.9375 1.640625 -5.433594 C 1.292969 -4.972656 1.117188 -4.402344 1.117188 -3.714844 C 1.117188 -3 1.3125 -2.394531 1.703125 -1.902344 C 2.121094 -1.371094 2.683594 -1.105469 3.382812 -1.105469 C 4.046875 -1.105469 4.730469 -1.386719 5.433594 -1.953125 Z M 5.433594 -1.679688 "/></g></g></g><g fill="#392852" fill-opacity="1"><g transform="translate(70.421565, 96.244864)"><g><path d="M 6.386719 -3.734375 C 6.386719 -3.140625 6.21875 -2.574219 5.882812 -2.035156 C 5.546875 -1.496094 5.113281 -1.089844 4.582031 -0.820312 C 4.097656 -0.574219 3.589844 -0.449219 3.0625 -0.449219 C 2.292969 -0.449219 1.648438 -0.710938 1.125 -1.234375 C 0.605469 -1.757812 0.34375 -2.402344 0.34375 -3.171875 C 0.34375 -4.046875 0.664062 -4.816406 1.3125 -5.480469 C 1.960938 -6.140625 2.71875 -6.472656 3.59375 -6.472656 C 4.601562 -6.472656 5.386719 -6.0625 5.949219 -5.246094 C 6.242188 -4.828125 6.386719 -4.324219 6.386719 -3.734375 Z M 5.625 -2.941406 C 5.625 -3.492188 5.511719 -4.011719 5.285156 -4.5 C 5.03125 -5.03125 4.679688 -5.425781 4.234375 -5.683594 C 3.804688 -5.929688 3.402344 -6.054688 3.03125 -6.054688 C 2.441406 -6.054688 1.964844 -5.84375 1.609375 -5.425781 C 1.273438 -5.03125 1.105469 -4.53125 1.105469 -3.925781 C 1.105469 -3.125 1.335938 -2.425781 1.796875 -1.828125 C 2.300781 -1.175781 2.945312 -0.851562 3.726562 -0.851562 C 4.285156 -0.851562 4.75 -1.0625 5.113281 -1.480469 C 5.453125 -1.882812 5.625 -2.371094 5.625 -2.941406 Z M 5.625 -2.941406 "/></g></g></g><g fill="#392852" fill-opacity="1"><g transform="translate(77.948917, 96.244864)"><g><path d="M 6.199219 -6.125 C 5.648438 -6.074219 5.375 -5.171875 5.375 -3.417969 L 5.375 -0.375 L 5.160156 -0.375 L 1.273438 -5.625 L 1.273438 -3.949219 C 1.273438 -3.171875 1.300781 -2.589844 1.355469 -2.199219 C 1.476562 -1.3125 1.726562 -0.84375 2.109375 -0.796875 L 2.109375 -0.582031 L 0.152344 -0.582031 L 0.152344 -0.796875 C 0.699219 -0.882812 0.972656 -1.914062 0.972656 -3.902344 L 0.972656 -5.453125 C 0.972656 -5.707031 0.925781 -5.878906 0.828125 -5.976562 C 0.730469 -6.070312 0.550781 -6.121094 0.296875 -6.125 L 0.296875 -6.34375 L 1.773438 -6.34375 L 5.050781 -1.941406 L 5.050781 -3.277344 C 5.050781 -5.121094 4.777344 -6.070312 4.230469 -6.125 L 4.230469 -6.34375 L 6.199219 -6.34375 Z M 6.199219 -6.125 "/></g></g></g><g fill="#392852" fill-opacity="1"><g transform="translate(84.998821, 96.244864)"><g><path d="M 3.882812 -2.261719 C 3.882812 -1.757812 3.648438 -1.324219 3.183594 -0.960938 C 2.753906 -0.621094 2.277344 -0.449219 1.757812 -0.449219 C 1.363281 -0.449219 0.921875 -0.546875 0.433594 -0.734375 L 0.433594 -2.355469 L 0.753906 -2.355469 C 0.753906 -1.941406 0.871094 -1.578125 1.105469 -1.265625 C 1.359375 -0.921875 1.6875 -0.753906 2.089844 -0.753906 C 2.410156 -0.753906 2.667969 -0.847656 2.871094 -1.035156 C 3.070312 -1.222656 3.171875 -1.472656 3.171875 -1.789062 C 3.171875 -2.117188 3.019531 -2.421875 2.714844 -2.707031 C 2.59375 -2.820312 2.304688 -3.03125 1.847656 -3.332031 C 1.460938 -3.589844 1.175781 -3.796875 0.992188 -3.953125 C 0.863281 -4.0625 0.761719 -4.203125 0.679688 -4.378906 C 0.609375 -4.527344 0.570312 -4.6875 0.570312 -4.851562 C 0.570312 -5.324219 0.792969 -5.71875 1.230469 -6.039062 C 1.625 -6.328125 2.070312 -6.472656 2.558594 -6.472656 C 2.824219 -6.472656 3.179688 -6.394531 3.625 -6.242188 L 3.625 -4.828125 L 3.296875 -4.828125 C 3.277344 -5.1875 3.167969 -5.492188 2.976562 -5.742188 C 2.765625 -6.023438 2.488281 -6.167969 2.144531 -6.167969 C 1.894531 -6.167969 1.6875 -6.089844 1.519531 -5.941406 C 1.347656 -5.78125 1.261719 -5.578125 1.261719 -5.332031 C 1.261719 -5.027344 1.433594 -4.71875 1.785156 -4.40625 C 1.914062 -4.289062 2.214844 -4.070312 2.683594 -3.757812 C 3.097656 -3.480469 3.371094 -3.277344 3.496094 -3.148438 C 3.753906 -2.886719 3.882812 -2.589844 3.882812 -2.261719 Z M 3.882812 -2.261719 "/></g></g></g><g fill="#392852" fill-opacity="1"><g transform="translate(89.931739, 96.244864)"><g><path d="M 6.152344 -6.125 C 5.589844 -6.042969 5.308594 -5.101562 5.308594 -3.3125 C 5.308594 -2.660156 5.308594 -2.304688 5.300781 -2.238281 C 5.269531 -1.816406 5.167969 -1.484375 5 -1.234375 C 4.652344 -0.710938 4.027344 -0.449219 3.125 -0.449219 C 2.175781 -0.449219 1.523438 -0.71875 1.160156 -1.257812 C 0.984375 -1.515625 0.894531 -1.832031 0.894531 -2.210938 L 0.894531 -5.410156 C 0.894531 -5.679688 0.847656 -5.867188 0.753906 -5.964844 C 0.660156 -6.066406 0.480469 -6.121094 0.210938 -6.125 L 0.210938 -6.34375 L 2.414062 -6.34375 L 2.414062 -6.125 C 2.148438 -6.121094 1.964844 -6.066406 1.871094 -5.964844 C 1.777344 -5.867188 1.730469 -5.679688 1.730469 -5.410156 L 1.730469 -2.246094 C 1.730469 -1.671875 1.949219 -1.246094 2.386719 -0.972656 C 2.636719 -0.8125 2.945312 -0.734375 3.320312 -0.734375 C 4.089844 -0.734375 4.589844 -1.003906 4.824219 -1.546875 C 4.9375 -1.8125 4.996094 -2.214844 4.996094 -2.757812 C 4.996094 -3.640625 4.972656 -4.261719 4.933594 -4.621094 C 4.816406 -5.589844 4.558594 -6.089844 4.167969 -6.125 L 4.167969 -6.34375 L 6.152344 -6.34375 Z M 6.152344 -6.125 "/></g></g></g><g fill="#392852" fill-opacity="1"><g transform="translate(96.981643, 96.244864)"><g><path d="M 4.347656 -2.230469 L 3.960938 -0.371094 L 3.746094 -0.371094 C 3.746094 -0.511719 3.679688 -0.582031 3.554688 -0.582031 L 0.292969 -0.582031 L 0.292969 -0.796875 C 0.558594 -0.800781 0.742188 -0.851562 0.835938 -0.953125 C 0.929688 -1.058594 0.976562 -1.242188 0.976562 -1.511719 L 0.976562 -5.410156 C 0.976562 -5.679688 0.929688 -5.867188 0.835938 -5.964844 C 0.742188 -6.066406 0.558594 -6.121094 0.292969 -6.125 L 0.292969 -6.34375 L 2.503906 -6.34375 L 2.503906 -6.125 C 2.230469 -6.121094 2.046875 -6.066406 1.953125 -5.96875 C 1.863281 -5.871094 1.816406 -5.6875 1.816406 -5.410156 L 1.816406 -0.796875 L 2.402344 -0.796875 C 3.3125 -0.796875 3.851562 -1.273438 4.023438 -2.230469 Z M 4.347656 -2.230469 "/></g></g></g><g fill="#392852" fill-opacity="1"><g transform="translate(102.108244, 96.244864)"><g><path d="M 4.777344 -4.832031 L 4.460938 -4.832031 C 4.449219 -5.695312 3.992188 -6.125 3.089844 -6.125 L 2.847656 -6.125 L 2.847656 -1.511719 C 2.847656 -1.046875 3.074219 -0.808594 3.53125 -0.796875 L 3.53125 -0.582031 L 1.328125 -0.582031 L 1.328125 -0.796875 C 1.597656 -0.800781 1.777344 -0.851562 1.871094 -0.953125 C 1.964844 -1.058594 2.011719 -1.242188 2.011719 -1.511719 L 2.011719 -6.125 L 1.703125 -6.125 C 0.871094 -6.125 0.441406 -5.695312 0.414062 -4.832031 L 0.0976562 -4.832031 L 0.0976562 -6.542969 L 0.296875 -6.542969 C 0.335938 -6.410156 0.394531 -6.34375 0.472656 -6.34375 L 4.410156 -6.34375 C 4.511719 -6.34375 4.5625 -6.410156 4.5625 -6.542969 L 4.777344 -6.542969 Z M 4.777344 -4.832031 "/></g></g></g><g fill="#392852" fill-opacity="1"><g transform="translate(107.716796, 96.244864)"><g><path d="M 5.5625 -0.582031 L 3.945312 -0.582031 L 3.945312 -0.796875 L 4.050781 -0.796875 C 4.101562 -0.796875 4.125 -0.847656 4.125 -0.945312 C 4.125 -0.976562 4.121094 -1.007812 4.109375 -1.046875 L 3.566406 -2.613281 L 1.597656 -2.613281 C 1.390625 -2.03125 1.289062 -1.597656 1.289062 -1.3125 C 1.289062 -1.15625 1.335938 -1.03125 1.4375 -0.9375 C 1.535156 -0.84375 1.664062 -0.796875 1.820312 -0.796875 L 2.058594 -0.796875 L 2.058594 -0.582031 L 0.0390625 -0.582031 L 0.0390625 -0.796875 C 0.378906 -0.816406 0.6875 -1.175781 0.960938 -1.875 L 2.804688 -6.582031 L 3.070312 -6.582031 L 4.667969 -1.976562 C 4.777344 -1.652344 4.882812 -1.410156 4.976562 -1.246094 C 5.152344 -0.957031 5.347656 -0.804688 5.5625 -0.796875 Z M 3.46875 -2.886719 L 2.648438 -5.285156 L 1.703125 -2.886719 Z M 3.46875 -2.886719 "/></g></g></g><g fill="#392852" fill-opacity="1"><g transform="translate(114.091066, 96.244864)"><g><path d="M 6.199219 -6.125 C 5.648438 -6.074219 5.375 -5.171875 5.375 -3.417969 L 5.375 -0.375 L 5.160156 -0.375 L 1.273438 -5.625 L 1.273438 -3.949219 C 1.273438 -3.171875 1.300781 -2.589844 1.355469 -2.199219 C 1.476562 -1.3125 1.726562 -0.84375 2.109375 -0.796875 L 2.109375 -0.582031 L 0.152344 -0.582031 L 0.152344 -0.796875 C 0.699219 -0.882812 0.972656 -1.914062 0.972656 -3.902344 L 0.972656 -5.453125 C 0.972656 -5.707031 0.925781 -5.878906 0.828125 -5.976562 C 0.730469 -6.070312 0.550781 -6.121094 0.296875 -6.125 L 0.296875 -6.34375 L 1.773438 -6.34375 L 5.050781 -1.941406 L 5.050781 -3.277344 C 5.050781 -5.121094 4.777344 -6.070312 4.230469 -6.125 L 4.230469 -6.34375 L 6.199219 -6.34375 Z M 6.199219 -6.125 "/></g></g></g><g fill="#392852" fill-opacity="1"><g transform="translate(121.14097, 96.244864)"><g><path d="M 4.777344 -4.832031 L 4.460938 -4.832031 C 4.449219 -5.695312 3.992188 -6.125 3.089844 -6.125 L 2.847656 -6.125 L 2.847656 -1.511719 C 2.847656 -1.046875 3.074219 -0.808594 3.53125 -0.796875 L 3.53125 -0.582031 L 1.328125 -0.582031 L 1.328125 -0.796875 C 1.597656 -0.800781 1.777344 -0.851562 1.871094 -0.953125 C 1.964844 -1.058594 2.011719 -1.242188 2.011719 -1.511719 L 2.011719 -6.125 L 1.703125 -6.125 C 0.871094 -6.125 0.441406 -5.695312 0.414062 -4.832031 L 0.0976562 -4.832031 L 0.0976562 -6.542969 L 0.296875 -6.542969 C 0.335938 -6.410156 0.394531 -6.34375 0.472656 -6.34375 L 4.410156 -6.34375 C 4.511719 -6.34375 4.5625 -6.410156 4.5625 -6.542969 L 4.777344 -6.542969 Z M 4.777344 -4.832031 "/></g></g></g><g fill="#392852" fill-opacity="1"><g transform="translate(126.749522, 96.244864)"><g><path d="M 3.882812 -2.261719 C 3.882812 -1.757812 3.648438 -1.324219 3.183594 -0.960938 C 2.753906 -0.621094 2.277344 -0.449219 1.757812 -0.449219 C 1.363281 -0.449219 0.921875 -0.546875 0.433594 -0.734375 L 0.433594 -2.355469 L 0.753906 -2.355469 C 0.753906 -1.941406 0.871094 -1.578125 1.105469 -1.265625 C 1.359375 -0.921875 1.6875 -0.753906 2.089844 -0.753906 C 2.410156 -0.753906 2.667969 -0.847656 2.871094 -1.035156 C 3.070312 -1.222656 3.171875 -1.472656 3.171875 -1.789062 C 3.171875 -2.117188 3.019531 -2.421875 2.714844 -2.707031 C 2.59375 -2.820312 2.304688 -3.03125 1.847656 -3.332031 C 1.460938 -3.589844 1.175781 -3.796875 0.992188 -3.953125 C 0.863281 -4.0625 0.761719 -4.203125 0.679688 -4.378906 C 0.609375 -4.527344 0.570312 -4.6875 0.570312 -4.851562 C 0.570312 -5.324219 0.792969 -5.71875 1.230469 -6.039062 C 1.625 -6.328125 2.070312 -6.472656 2.558594 -6.472656 C 2.824219 -6.472656 3.179688 -6.394531 3.625 -6.242188 L 3.625 -4.828125 L 3.296875 -4.828125 C 3.277344 -5.1875 3.167969 -5.492188 2.976562 -5.742188 C 2.765625 -6.023438 2.488281 -6.167969 2.144531 -6.167969 C 1.894531 -6.167969 1.6875 -6.089844 1.519531 -5.941406 C 1.347656 -5.78125 1.261719 -5.578125 1.261719 -5.332031 C 1.261719 -5.027344 1.433594 -4.71875 1.785156 -4.40625 C 1.914062 -4.289062 2.214844 -4.070312 2.683594 -3.757812 C 3.097656 -3.480469 3.371094 -3.277344 3.496094 -3.148438 C 3.753906 -2.886719 3.882812 -2.589844 3.882812 -2.261719 Z M 3.882812 -2.261719 "/></g></g></g></svg>