<?xml version="1.0" encoding="UTF-8" standalone="no"?><svg xmlns="http://www.w3.org/2000/svg" xmlns:xlink="http://www.w3.org/1999/xlink" fill="#ffffff" height="77.9" preserveAspectRatio="xMidYMid meet" version="1" viewBox="5.4 5.6 80.7 77.9" width="80.7" zoomAndPan="magnify"><g id="change1_1"><path d="M56.031,54.684c1.36-0.041,2.475,0.349,3.521,1.401l24,24.124c0.317,0.324,0.369,0.699,0.308,0.959 c-0.057,0.265-0.105,0.251-0.125,0.251H8.016c-0.136,0-0.147-0.016-0.204-0.063c-0.052-0.052-0.124-0.161-0.167-0.328 c-0.083-0.328,0.063-0.751,0.109-0.797l12.933-12.317c1.577-1.505,2.572-2.396,3.552-2.885c0.979-0.495,2.047-0.683,4.015-0.683 h5.183c3.125,0,4.995-0.609,7.537-2.079l7.613-4.395c0.808-0.037,1.62-0.313,2.256-0.896c0.219-0.204,0.401-0.459,0.563-0.729 C53.094,55.272,54.683,54.725,56.031,54.684z M37.203,41.277c0.448-0.005,1.089,0.141,1.792,0.511 c3.193,1.672,4.448,2.724,5.027,3.855c0.672,1.296,0.9,3.891,0.9,8.588c-0.052,1.12,0.376,2.115,1.057,2.745h0.005l-6.047,3.489 c-2.203,1.271-3.416,1.719-5.817,1.787c0.183-0.376,0.317-0.787,0.364-1.24c0.871-6.552,1.256-11.568,1.573-17.989 c0.063-1.265,0.38-1.547,0.776-1.683C36.932,41.304,37.057,41.283,37.203,41.277z M46.953,15.887 c-0.021,0.751-0.177,1.871-0.317,2.615c-0.636,0.271-1.292,0.469-1.844,0.651c0.5-1.093,0.844-2.385,1.093-3.785 C46.005,14.684,46.979,14.897,46.953,15.887z M48.797,14.372l2.453,0.077c-0.693,1.199-1.469,2.079-2.333,2.751 c0.041-0.412,0.088-0.839,0.109-1.183C49.068,15.408,48.984,14.856,48.797,14.372z M55.036,15.148 c-1.823,5.145-4.937,7.255-8.801,8.421c-1.787,0.541-3.484,0.661-5.541,0.88c-0.537,0.057-0.943,0.521-0.928,1.063l0.328,10.86 c0.016,0.385,0.24,0.728,0.584,0.9c3.896,1.88,6.443,3.677,7.697,6.125c1.469,2.844,1.355,6.088,1.443,10.891 c0.011,0.495-0.176,0.864-0.385,1.145c-0.192,0.272-0.629,0.371-1.025,0.371s-0.771-0.141-1.016-0.371 c-0.38-0.452-0.385-0.733-0.396-1.145c-0.077-4.787-0.083-7.579-1.125-9.599c-0.895-1.735-2.604-3.005-5.905-4.74 c-1.235-0.645-2.563-1.011-3.819-0.568c-1.249,0.443-2.077,1.787-2.161,3.537c-0.317,6.4-0.697,11.333-1.557,17.839 c-0.005,0.015-0.005,0.025-0.009,0.036c-0.057,0.579-0.256,0.839-0.532,1.031c-0.271,0.188-0.667,0.276-1.057,0.229 c-0.385-0.052-0.744-0.244-0.959-0.495c-0.317-0.479-0.301-0.729-0.244-1.167c2.011-14.989,2.249-26.984,0.968-36.629 c-0.115-0.865,0.527-1.605,1.396-1.605c4.62,0,10.041,0,13.428-1.025c3.192-0.964,6.312-2.661,8.317-6.975 C54.271,13.012,55.412,14.08,55.036,15.148z M66.678,10.528v2.291l-10.161-0.276c-0.251-0.307-0.557-0.561-0.907-0.733 c-0.984-0.48-2.265-0.251-3.131,0.604l-7.733-0.251c-0.839-0.025-0.704-1.093-0.048-1.109L66.678,10.528z M67.698,7.725 c-0.447,0.011-0.837,0.303-0.973,0.724L44.765,8.971c-1.651,0.041-2.927,1.364-2.905,2.677c0.02,1.156,0.937,2.244,2.26,2.52 c-0.145,0.281-0.251,0.589-0.297,0.928c-0.244,1.869-1.005,3.536-1.719,4.572c-2.896,0.36-6.735,0.417-10.115,0.417 c-2.083,0-3.588,2.181-3.453,3.948c1,13.265,0.693,25.541-0.968,36.057c-0.131,0.796,0.005,1.557,0.317,2.187 c-1.907,0.027-3.312,0.256-4.577,0.891c-1.349,0.677-2.459,1.724-4.053,3.24L6.323,78.726c-0.807,0.771-0.932,1.839-0.692,2.797 c0.12,0.484,0.348,0.963,0.755,1.344c0.401,0.385,1,0.635,1.631,0.635h75.719c1.129,0,1.932-0.927,2.151-1.864 c0.213-0.943-0.031-2.057-0.855-2.891l-24-24.131c-1.421-1.427-3.219-2.068-5.061-2.005c-1.339,0.041-2.704,0.428-4.073,1.047 c0.005-4.463,0.005-7.957-1.672-11.213c-1.5-2.916-4.36-4.853-8.068-6.708l-0.287-9.375c1.652-0.167,3.256-0.287,4.975-0.808 c4.265-1.291,8.115-4.005,10.151-9.703c0.147-0.412,0.208-0.812,0.213-1.199l9.495,0.251c0.313,1.229,2.131,0.937,2.048-0.323V8.777 C68.76,8.195,68.282,7.715,67.698,7.725z"/></g><g id="change1_2"><path clip-rule="evenodd" d="M36.407,8.777c2.099,0.797,3.109,3.068,2.307,5.12 c-0.807,2.052-3.14,3.073-5.239,2.276c-2.089-0.797-3.1-3.073-2.297-5.115C31.984,9.001,34.312,7.981,36.407,8.777z M37.141,6.835 c-3.131-1.192-6.683,0.355-7.907,3.464h0.011c-1.219,3.099,0.353,6.625,3.489,7.817c3.14,1.188,6.692-0.353,7.916-3.464 C41.864,11.548,40.287,8.028,37.141,6.835z" fill-rule="evenodd"/></g></svg>