<?xml version="1.0" encoding="UTF-8" standalone="no"?><svg xmlns="http://www.w3.org/2000/svg" xmlns:xlink="http://www.w3.org/1999/xlink" fill="#000000" height="390.7" preserveAspectRatio="xMidYMid meet" version="1" viewBox="25.0 58.6 450.5 390.7" width="450.5" zoomAndPan="magnify"><g><g id="change1_6"><path d="M265.188,218.01c-2.753,0-4.974-2.232-4.974-4.98v-53.964c0-1.345,0.542-2.631,1.499-3.567 c10.044-9.768,16.039-25.185,16.039-41.235c0-17.815-7.228-34.365-19.047-44.127c-11.745,9.81-18.909,26.36-18.909,44.127 c0,16.055,6.005,31.467,16.039,41.23c1.978,1.919,2.02,5.071,0.107,7.042c-1.924,1.972-5.06,2.015-7.037,0.101 c-12.117-11.771-19.058-29.406-19.058-48.373c0-22.353,9.949-43.218,25.978-54.46c1.712-1.195,3.965-1.2,5.698-0.015 c16.39,11.347,26.18,31.712,26.18,54.475c0,18.159-6.367,35.103-17.539,46.848v51.918 C270.162,215.778,267.94,218.01,265.188,218.01z" fill="#ffffff"/></g><g id="change1_4"><path d="M361.393,312.599c-1.287,0-2.562-0.494-3.54-1.477c-9.514-9.614-18.028-18.373-25.702-26.281 c-34.47-35.479-51.774-53.289-67.389-53.289c-15.604,0.005-32.843,17.768-67.197,53.151l-5.697,5.873 c-1.924,1.977-5.071,2.015-7.037,0.101c-1.978-1.919-2.02-5.071-0.107-7.042l5.698-5.868 c36.298-37.393,54.527-56.164,74.33-56.169c0.01,0,0.01,0,0.01,0c19.834,0,38.106,18.819,74.532,56.308 c7.653,7.887,16.146,16.625,25.638,26.211c1.934,1.956,1.912,5.108-0.033,7.042C363.922,312.116,362.657,312.599,361.393,312.599z" fill="#ffffff"/></g><g id="change1_3"><path d="M193.664,441.095c-16.496,0-32.111-2.546-46.481-8.392l-34.789-14.169h-11.638 c-2.754,0-4.975-2.231-4.975-4.98V310.208c0-1.86,1.032-3.56,2.679-4.417c24.703-12.813,55.505-13.801,99.861-3.215 c4.21,0.973,7.728,1.956,10.959,2.854c15.008,4.199,23.267,6.511,76.03-3.89c27.509-5.426,47.884-3.805,60.544,4.81 c5.984,4.071,10.183,9.63,12.521,16.577c2.743-0.936,5.665-1.967,8.737-3.051c27.19-9.588,64.392-22.725,88.392-10.449 c9.418,4.826,15.913,13.122,19.292,24.665c0.745,2.52-0.595,5.177-3.06,6.08c-22.885,8.36-49.831,21.195-78.348,34.784 C327.431,406.375,254.558,441.095,193.664,441.095z M105.729,408.575h7.642c0.649,0,1.286,0.127,1.882,0.367l35.693,14.535 c63.254,25.787,156.207-18.462,238.158-57.508c26.87-12.803,52.348-24.942,74.605-33.429c-2.764-6.601-6.962-11.288-12.743-14.249 c-20.175-10.327-55.059,1.988-80.538,10.975c-5.07,1.785-9.747,3.433-13.86,4.746c-4.869,1.94-66.071,25.977-117.229,30.426 l-4.815,12.298c-0.999,2.566-3.89,3.842-6.452,2.822c-2.561-0.999-3.816-3.885-2.817-6.447l3.136-8.03 c-10.884,0.335-21.184-0.5-29.963-2.876c-2.647-0.717-4.22-3.454-3.497-6.106c0.723-2.647,3.433-4.235,6.111-3.503 c42.942,11.666,128.39-18.952,147.948-26.333c-1.637-4.969-4.517-8.812-8.737-11.681c-10.237-6.963-28.582-8.105-53.008-3.274 c-55.112,10.857-64.179,8.311-80.644,3.715c-3.104-0.866-6.484-1.812-10.555-2.753c-40.242-9.61-68.293-9.328-90.316,1.031 V408.575z" fill="#ffffff"/></g><g id="change1_1"><path d="M84.194,437.449h-37.66c-11.873,0-21.534-9.29-21.534-20.711V304.234 c0-11.421,9.662-20.712,21.534-20.712h37.66c12.075,0,21.535,9.099,21.535,20.712v112.504 C105.729,428.159,96.067,437.449,84.194,437.449z M46.534,293.483c-6.388,0-11.585,4.821-11.585,10.751v112.504 c0,5.83,5.304,10.751,11.585,10.751h37.66c6.388,0,11.585-4.821,11.585-10.751V304.234c0-6.032-5.091-10.751-11.585-10.751H46.534 z" fill="#ffffff"/></g><g id="change1_2"><path d="M296.118,213.822c-3.242,0-6.441-0.286-9.577-0.876c-2.019-0.383-3.593-1.967-3.975-3.991 c-3.582-19.468,3.975-41.306,19.717-56.999c15.891-16.04,37.574-23.661,56.536-19.877c1.998,0.404,3.551,1.977,3.923,3.98 c3.551,19.292-3.997,41.124-19.696,56.978C329.898,206.313,312.615,213.822,296.118,213.822z M291.867,203.66 c15.082,1.526,31.643-5.048,44.1-17.628c12.501-12.617,19.005-29.449,17.464-44.717c-14.881-1.643-31.494,4.942-44.09,17.671 C296.81,171.465,290.315,188.275,291.867,203.66z" fill="#ffffff"/></g><g id="change1_5"><path d="M235.234,213.822c-16.496,0-33.779-7.509-46.928-20.785 c-15.699-15.854-23.246-37.686-19.696-56.978c0.372-2.004,1.924-3.577,3.923-3.98c18.952-3.768,40.656,3.831,56.558,19.903 c15.72,15.667,23.278,37.505,19.696,56.973c-0.383,2.025-1.956,3.608-3.976,3.991C241.675,213.53,238.466,213.822,235.234,213.822 z M243.887,208.051h0.106H243.887z M177.922,141.315c-1.541,15.268,4.964,32.1,17.464,44.717 c12.447,12.58,29.018,19.165,44.101,17.628c1.551-15.385-4.942-32.19-17.454-44.647 C209.416,146.269,192.856,139.667,177.922,141.315z" fill="#ffffff"/></g></g></svg>